<svg id="Слой_1" data-name="Слой 1" xmlns="http://www.w3.org/2000/svg" viewBox="0 0 201 201"><path d="M100,0h0A100,100,0,0,1,200,100h0A100,100,0,0,1,0,100H0A100,100,0,0,1,100,0Z" transform="translate(0.61 0.61)" style="fill:#fff"/><rect x="5.5" y="5.5" width="190" height="190" rx="38.67" style="fill:#333340;stroke:#333340;stroke-width:11px"/><path d="M35.42,45.48H20.66V40.15H56.59v5.33H41.75v43.2H35.42Z" transform="translate(0.61 0.61)" style="fill:#fff"/><path d="M88.19,71c.09,25.1-34.6,24-34,.57C53.26,47.18,89.15,47.27,88.19,71Zm-27.65.36C60.3,89,82,89,81.71,71.18,82.29,53.67,60,53.38,60.54,71.33Z" transform="translate(0.61 0.61)" style="fill:#fff"/><path d="M126.28,37.56c.11,6.7-.28,45.35.29,51.12h-5.69l-.29-6.05h-.14c-7.32,13.15-28,6-26.79-10.87-1.2-16.62,18-25,26.14-13.39H120V37.56ZM120,68a9.52,9.52,0,0,0-9.44-10c-13.35-.74-14.34,26.84-.14,26.35C119.14,84.39,120.68,75.24,120,68Z" transform="translate(0.61 0.61)" style="fill:#fff"/><path d="M168.33,71c.09,25.1-34.61,24-34.06.57C133.39,47.18,169.28,47.27,168.33,71Zm-27.65.36c-.25,17.62,21.4,17.69,21.17-.15C162.43,53.67,140.16,53.38,140.68,71.33Z" transform="translate(0.61 0.61)" style="fill:#fff"/><path d="M48.22,135.81l-5,15.27H36.69l16.49-48.54h7.56l16.57,48.54h-6.7l-5.18-15.27Zm15.91-4.9c-1.9-5.67-6.08-17.26-7.27-22.82h-.15c-1.23,5.7-5.28,17.13-7.2,22.82Z" transform="translate(0.61 0.61)" style="fill:#f9617b"/><path d="M84,127.6c0-4.46-.14-8.06-.29-11.38H89.4l.29,6h.14c8.08-13,28.18-6.11,27.15,11,.68,17.48-17.8,24.77-26.57,13.24h-.15v18.94H84Zm6.26,9.29c.91,15,21.77,12.26,20.38-3.46C109.79,113.32,87,118.18,90.26,136.89Z" transform="translate(0.61 0.61)" style="fill:#f9617b"/><path d="M125,127.6c0-4.46-.15-8.06-.29-11.38h5.69l.29,6h.14c8.08-13,28.18-6.11,27.14,11,.68,17.48-17.79,24.77-26.56,13.24h-.15v18.94H125Zm6.26,9.29c.91,15,21.77,12.26,20.38-3.46C150.75,113.32,128,118.18,131.23,136.89Z" transform="translate(0.61 0.61)" style="fill:#f9617b"/></svg>